<?xml version="1.0" standalone="no"?>
<!DOCTYPE svg PUBLIC "-//W3C//DTD SVG 20010904//EN"
 "http://www.w3.org/TR/2001/REC-SVG-20010904/DTD/svg10.dtd">
<svg version="1.0" xmlns="http://www.w3.org/2000/svg"
 width="200.000000pt" height="200.000000pt" viewBox="0 0 200.000000 200.000000"
 preserveAspectRatio="xMidYMid meet">
<metadata>
Created by potrace 1.16, written by Peter Selinger 2001-2019
</metadata>
<g transform="translate(0.000000,200.000000) scale(0.100000,-0.100000)"
fill="#000000" stroke="none">
<path d="M1570 1670 c-118 -50 -218 -94 -222 -98 -4 -4 33 -29 82 -56 l90 -49
-29 -51 c-16 -28 -103 -182 -193 -341 l-163 -291 -75 83 c-41 45 -100 110
-131 144 l-56 62 -359 -404 c-198 -222 -363 -410 -368 -416 -6 -10 23 -13 131
-13 l138 0 230 261 230 260 25 -29 c14 -16 81 -91 149 -166 109 -120 125 -134
136 -119 6 10 121 214 255 453 134 239 248 441 255 448 9 10 26 5 84 -29 40
-23 75 -39 78 -36 3 4 -6 106 -21 229 -14 123 -26 229 -26 236 0 6 -6 12 -12
12 -7 0 -110 -41 -228 -90z"/>
</g>
</svg>
