<?xml version="1.0" standalone="no"?>
<!DOCTYPE svg PUBLIC "-//W3C//DTD SVG 20010904//EN"
 "http://www.w3.org/TR/2001/REC-SVG-20010904/DTD/svg10.dtd">
<svg version="1.0" xmlns="http://www.w3.org/2000/svg"
 width="1600.000000pt" height="1700.000000pt" viewBox="0 0 1600.000000 1700.000000"
 preserveAspectRatio="xMidYMid meet">
<metadata>
Created by potrace 1.16, written by Peter Selinger 2001-2019
</metadata>
<g transform="translate(0.000000,1700.000000) scale(0.100000,-0.100000)"
fill="#000000" stroke="none">
<path d="M4400 14264 c-186 -40 -332 -172 -396 -360 l-28 -79 1 -3915 0 -3915
22 -63 c32 -97 70 -159 141 -232 127 -128 229 -160 515 -160 l193 0 5 -207 c5
-226 13 -268 69 -375 56 -106 171 -204 293 -251 l60 -22 3140 -3 c2230 -1
3155 1 3193 9 167 34 323 172 391 347 l26 67 3 3035 c1 1669 0 3046 -3 3060
-4 16 -411 431 -1093 1113 -863 863 -1094 1089 -1122 1097 -20 6 -195 10 -407
10 l-373 0 0 383 c0 356 -1 384 -19 413 -10 17 -34 38 -54 47 -32 16 -202 17
-2264 16 -1876 0 -2238 -3 -2293 -15z m4360 -549 l0 -295 -1727 -2 -1728 -3
-65 -23 c-80 -29 -152 -70 -145 -82 3 -6 -1 -7 -10 -4 -24 10 -127 -106 -170
-188 -71 -139 -65 141 -65 -3516 0 -1813 0 -3408 0 -3544 l0 -248 -183 0
c-218 0 -266 10 -332 71 -24 23 -54 62 -67 87 l-23 47 0 3890 0 3890 28 57
c33 67 81 110 152 138 49 18 102 19 2193 19 l2142 1 0 -295z m880 -1572 c0
-1105 -3 -1053 62 -1093 33 -20 48 -20 1046 -20 l1012 0 -2 -2942 -3 -2943
-30 -54 c-32 -59 -82 -101 -148 -126 -38 -14 -341 -15 -3152 -13 l-3110 3 -41
22 c-48 26 -107 88 -131 140 -17 36 -18 225 -18 3928 l0 3890 30 59 c41 82
110 131 200 145 22 3 995 6 2163 7 l2122 1 0 -1004z m1100 -18 l825 -825 -828
0 -827 0 0 825 c0 454 1 825 3 825 1 0 373 -371 827 -825z"/>
<path d="M6285 10035 c-69 -25 -108 -93 -90 -162 9 -37 67 -89 107 -97 18 -3
989 -6 2157 -5 1895 0 2128 2 2162 16 105 41 113 187 15 241 -29 16 -179 17
-2171 19 -1825 2 -2146 0 -2180 -12z"/>
<path d="M6254 9161 c-32 -20 -64 -74 -64 -110 0 -45 31 -98 69 -119 l39 -22
2146 0 c2332 0 2188 -4 2234 55 34 42 38 87 13 139 -41 83 177 76 -2248 76
-2094 0 -2159 -1 -2189 -19z"/>
<path d="M6270 8302 c-42 -21 -80 -75 -80 -114 0 -44 29 -98 64 -119 30 -18
95 -19 2195 -19 2153 0 2164 0 2196 20 64 40 80 135 33 195 -46 59 97 55
-2230 55 -2020 0 -2145 -1 -2178 -18z"/>
<path d="M6300 7453 c-42 -8 -88 -50 -101 -93 -17 -57 1 -111 48 -147 l36 -28
2161 0 c1901 0 2165 2 2191 15 33 17 75 82 75 118 0 38 -38 100 -73 119 -30
17 -145 18 -2172 19 -1177 1 -2151 -1 -2165 -3z"/>
<path d="M6254 6571 c-92 -56 -77 -198 25 -240 18 -8 650 -10 2183 -9 l2157 3
28 21 c15 11 36 37 47 58 24 49 15 97 -29 144 l-33 37 -2174 3 c-2112 2 -2174
1 -2204 -17z"/>
<path d="M6271 5712 c-96 -48 -105 -179 -17 -233 30 -18 95 -19 2194 -19 2033
0 2166 1 2193 17 40 24 73 94 65 137 -8 44 -41 85 -82 102 -28 12 -378 14
-2176 14 -2020 0 -2145 -1 -2177 -18z"/>
<path d="M0 500 l0 -500 8000 0 8000 0 0 500 0 500 -8000 0 -8000 0 0 -500z
m776 263 c35 -12 68 -35 117 -84 l67 -68 0 -125 c0 -138 -9 -173 -49 -183 -14
-3 -52 -21 -83 -40 -107 -66 -238 -55 -331 27 -129 114 -121 329 17 431 27 20
63 41 80 47 49 16 128 14 182 -5z m464 -160 c1 -92 2 -96 16 -71 17 32 62 58
100 58 26 0 94 -35 94 -48 0 -4 -26 -33 -57 -65 -56 -57 -57 -59 -28 -55 17 3
38 9 48 13 14 6 17 2 17 -22 0 -69 -129 -72 -168 -3 -20 35 -28 37 -37 9 -9
-26 -62 -59 -98 -59 -99 0 -154 119 -88 192 27 30 35 33 85 33 l56 0 0 58 c0
57 0 57 30 57 l30 0 0 -97z m1360 38 l0 -59 39 5 c33 5 41 2 55 -19 13 -20 76
-190 76 -206 0 -2 -14 -2 -32 0 -30 3 -33 7 -56 81 -25 80 -41 99 -67 77 -11
-9 -15 -33 -15 -86 l0 -74 -30 0 c-29 0 -30 2 -31 43 0 33 -2 38 -9 21 -4 -12
-21 -31 -37 -44 -23 -18 -37 -21 -80 -18 l-53 5 0 -44 c0 -41 -1 -43 -30 -43
l-30 0 0 118 c0 129 7 150 60 177 59 30 148 5 170 -48 6 -15 9 7 9 76 l1 97
30 0 c30 0 30 0 30 -59z m-370 -16 c0 -31 3 -35 25 -35 21 0 25 -5 25 -30 0
-25 -4 -30 -25 -30 -24 0 -25 -3 -25 -55 0 -52 1 -55 25 -55 21 0 25 -5 25
-30 0 -28 -3 -30 -35 -30 -56 0 -75 27 -75 105 0 37 -4 65 -10 65 -5 0 -10 14
-10 30 0 17 5 30 10 30 6 0 10 11 10 23 0 15 9 28 23 35 34 16 37 15 37 -23z
m830 0 c0 -31 3 -35 25 -35 21 0 25 -5 25 -30 0 -25 -4 -30 -25 -30 -24 0 -25
-3 -25 -55 0 -52 1 -55 25 -55 21 0 25 -5 25 -30 0 -28 -3 -30 -35 -30 -56 0
-75 27 -75 105 0 37 -4 65 -10 65 -5 0 -10 14 -10 30 0 17 5 30 10 30 6 0 10
11 10 23 0 15 9 28 23 35 34 16 37 15 37 -23z m-1414 -66 c13 -12 24 -28 24
-36 0 -20 17 -15 23 6 6 26 64 61 100 61 114 0 161 -151 65 -210 -18 -11 -46
-20 -63 -20 -37 0 -95 34 -102 60 -4 16 -10 13 -44 -22 -37 -39 -40 -40 -89
-36 l-50 5 0 -43 c0 -42 -1 -44 -30 -44 l-30 0 0 110 c0 123 11 159 58 185 38
21 107 14 138 -16z m395 12 c24 -19 24 -19 5 -40 -13 -15 -23 -18 -30 -11 -5
5 -16 10 -23 10 -22 0 -14 -18 14 -32 38 -18 54 -53 41 -89 -17 -51 -76 -65
-119 -30 -24 19 -24 19 -5 40 13 15 23 18 30 11 14 -14 36 -13 36 3 0 6 -14
18 -30 25 -33 15 -46 47 -36 87 11 44 77 58 117 26z m906 -14 c76 -76 6 -213
-99 -193 -55 10 -83 47 -83 111 0 55 18 88 60 106 34 15 96 3 122 -24z m323
18 c107 -55 62 -215 -61 -215 -22 0 -41 10 -65 34 -92 92 11 241 126 181z
m191 -4 c24 -19 24 -19 5 -40 -13 -15 -23 -18 -30 -11 -5 5 -16 10 -23 10 -22
0 -15 -20 10 -29 60 -23 74 -75 32 -116 -29 -30 -74 -33 -106 -6 -24 19 -24
19 -5 40 13 15 23 18 30 11 13 -13 46 -13 46 0 0 5 -15 17 -32 26 -40 20 -48
31 -48 67 0 58 72 88 121 48z m8449 -10 c15 -29 12 -87 -6 -105 -16 -16 -93
-23 -95 -8 0 4 -2 35 -4 70 l-4 62 49 0 c39 0 52 -4 60 -19z"/>
<path d="M638 640 c-10 -15 -24 -20 -54 -20 -66 0 -74 -16 -74 -151 0 -76 4
-119 12 -127 8 -8 66 -12 194 -12 153 0 185 3 198 16 13 12 16 39 16 129 0
134 -6 145 -79 145 -35 0 -53 5 -66 20 -14 16 -31 20 -76 20 -48 0 -61 -4 -71
-20z m132 -65 c102 -53 60 -215 -55 -215 -69 0 -121 62 -112 132 11 82 92 122
167 83z"/>
<path d="M671 556 c-26 -15 -50 -51 -51 -79 -1 -56 61 -105 118 -92 81 17 95
132 21 170 -34 18 -57 18 -88 1z m98 -32 c29 -37 27 -78 -5 -103 -15 -12 -38
-21 -51 -21 -32 0 -73 42 -73 76 0 68 88 100 129 48z"/>
</g>
</svg>
