<?xml version="1.0" standalone="no"?>
<!DOCTYPE svg PUBLIC "-//W3C//DTD SVG 20010904//EN"
 "http://www.w3.org/TR/2001/REC-SVG-20010904/DTD/svg10.dtd">
<svg version="1.0" xmlns="http://www.w3.org/2000/svg"
 width="860.000000pt" height="901.000000pt" viewBox="0 0 860.000000 901.000000"
 preserveAspectRatio="xMidYMid meet">
<metadata>
Created by potrace 1.16, written by Peter Selinger 2001-2019
</metadata>
<g transform="translate(0.000000,901.000000) scale(0.100000,-0.100000)"
fill="#000000" stroke="none">
<path d="M300 4605 l0 -4005 4000 0 4000 0 0 95 0 95 -3915 0 -3915 0 0 3910
0 3910 -85 0 -85 0 0 -4005z"/>
<path d="M8170 6630 c-36 -10 -261 -70 -500 -134 -532 -141 -990 -264 -1009
-271 -10 -4 63 -84 224 -245 l240 -240 -1100 -1100 c-605 -605 -1104 -1100
-1110 -1100 -5 0 -303 293 -661 651 l-651 651 -819 -728 c-1076 -957 -1264
-1126 -1264 -1141 0 -7 33 -47 74 -89 63 -65 76 -75 92 -66 11 6 208 178 439
383 1064 944 1449 1282 1461 1283 7 0 303 -289 658 -643 634 -633 645 -644
668 -629 57 37 473 447 2095 2062 l293 291 268 -268 c147 -147 272 -267 278
-267 6 0 18 26 26 58 9 31 57 210 108 397 148 547 300 1128 300 1147 0 23 -24
22 -110 -2z"/>
</g>
</svg>
