<?xml version="1.0" standalone="no"?>
<!DOCTYPE svg PUBLIC "-//W3C//DTD SVG 20010904//EN"
 "http://www.w3.org/TR/2001/REC-SVG-20010904/DTD/svg10.dtd">
<svg version="1.0" xmlns="http://www.w3.org/2000/svg"
 width="1300.000000pt" height="1300.000000pt" viewBox="0 0 1300.000000 1300.000000"
 preserveAspectRatio="xMidYMid meet">
<metadata>
Created by potrace 1.16, written by Peter Selinger 2001-2019
</metadata>
<g transform="translate(0.000000,1300.000000) scale(0.100000,-0.100000)"
fill="#000000" stroke="none">
<path d="M8165 10718 c-3 -8 -4 -81 -3 -163 l3 -150 59 2 c33 1 70 4 83 8 22
5 23 8 11 22 -10 13 -10 17 0 20 15 6 15 28 0 53 -10 15 -10 24 -1 39 9 15 8
23 -4 42 -15 21 -15 22 0 16 15 -5 15 -3 4 15 -26 44 -75 91 -100 93 -14 2
-31 6 -36 10 -6 3 -13 0 -16 -7z"/>
<path d="M8164 10055 c-15 -38 13 -252 38 -291 4 -6 24 -8 50 -5 38 5 43 9 46
34 2 15 7 27 12 27 17 0 20 52 5 84 -14 29 -14 37 -3 55 10 16 10 25 1 39 -7
12 -8 24 -2 34 12 22 6 25 -73 33 -59 6 -69 5 -74 -10z"/>
<path d="M3905 9560 c1 -56 6 -105 12 -111 6 -6 23 -9 39 -7 29 3 29 3 29 76
1 44 -4 76 -11 80 -6 4 -19 19 -29 35 -32 50 -41 34 -40 -73z"/>
<path d="M9105 9590 c-8 -13 3 -122 13 -132 4 -3 69 -8 144 -10 154 -3 143 -9
154 82 3 25 6 50 7 55 3 14 -309 19 -318 5z"/>
<path d="M3840 9360 c0 -60 -10 -91 -37 -118 -19 -20 -17 -27 25 -63 20 -17
41 -39 46 -47 15 -25 -18 0 -53 40 -18 21 -37 36 -41 33 -16 -10 -51 -88 -43
-95 4 -5 40 -6 79 -3 l72 6 6 116 c7 139 0 185 -32 189 -21 3 -22 0 -22 -58z"/>
<path d="M4877 9383 c-3 -6 6 -157 15 -261 1 -7 11 -12 22 -10 15 2 20 9 18
23 -14 82 -14 87 -3 81 6 -4 11 -16 11 -27 0 -25 3 -24 36 6 15 14 34 25 43
25 10 0 22 5 27 10 13 13 92 17 122 7 21 -8 22 -6 22 41 0 27 3 64 6 81 l7 31
-161 0 c-89 0 -163 -3 -165 -7z"/>
<path d="M5528 9385 c-3 -3 -2 -23 3 -43 5 -20 9 -54 9 -74 0 -20 4 -39 8 -42
13 -8 93 19 106 35 6 8 40 37 76 64 60 46 68 37 10 -12 -14 -11 -25 -25 -25
-30 -1 -21 -27 -53 -38 -47 -7 4 -8 3 -4 -1 10 -12 87 -14 87 -2 0 5 13 6 30
2 35 -8 43 7 54 97 l6 56 -158 1 c-87 1 -161 -1 -164 -4z"/>
<path d="M6184 9324 c8 -75 21 -108 39 -97 7 4 67 8 135 9 68 1 125 4 127 6 3
2 8 37 11 76 l7 72 -163 0 -163 0 7 -66z"/>
<path d="M6827 9383 c-7 -12 13 -127 23 -137 6 -6 49 -11 97 -13 49 -2 108 -4
132 -6 51 -3 55 4 64 101 l5 62 -158 0 c-88 0 -161 -3 -163 -7z"/>
<path d="M9760 8941 l0 -161 30 0 c43 0 130 20 130 30 0 5 -5 12 -10 15 -8 5
-7 11 1 21 8 10 10 36 6 79 -4 39 -2 65 3 65 19 0 9 25 -23 63 -27 32 -40 38
-85 44 l-52 6 0 -162z"/>
<path d="M3647 8749 c-8 -30 -9 -246 -1 -276 6 -20 11 -21 58 -16 95 11 93 9
95 115 1 51 6 97 11 102 15 15 12 26 -5 26 -8 0 -15 5 -15 10 0 6 6 10 14 10
7 0 19 6 25 14 13 15 -6 21 -112 32 -61 6 -64 5 -70 -17z"/>
<path d="M9765 8442 c-3 -3 -5 -74 -5 -159 l0 -153 33 1 c17 0 52 4 76 7 l44
7 -1 113 c-1 61 -4 117 -8 124 -4 6 -2 14 4 16 21 7 13 32 -10 33 -13 0 -47 4
-76 8 -29 4 -54 5 -57 3z"/>
<path d="M5207 8213 c-11 -11 -8 -61 5 -69 6 -4 72 -8 146 -8 145 -2 162 4
162 49 0 12 -7 26 -16 29 -21 8 -289 8 -297 -1z"/>
<path d="M5862 8211 c-10 -6 -11 -17 -5 -41 l9 -33 142 -2 c150 -2 156 0 164
47 4 21 0 28 -16 32 -33 9 -280 7 -294 -3z"/>
<path d="M6518 8213 c-19 -5 -20 -13 -9 -52 6 -24 8 -24 149 -26 155 -2 166 1
160 52 l-3 28 -140 1 c-77 1 -148 0 -157 -3z"/>
<path d="M7162 8211 c-10 -6 -11 -17 -5 -41 l9 -32 134 -3 c74 -1 143 2 153 7
13 7 17 18 15 41 l-3 32 -145 2 c-80 2 -151 -1 -158 -6z"/>
<path d="M3647 8105 c-9 -21 -9 -252 0 -283 5 -23 9 -23 67 -17 59 7 111 25
91 32 -6 2 -9 54 -8 133 1 71 -2 132 -6 134 -4 3 -37 8 -73 12 -56 6 -66 4
-71 -11z"/>
<path d="M4893 8105 c-12 -9 -13 -24 -5 -80 5 -39 7 -76 5 -82 -3 -7 2 -13 12
-13 9 0 13 5 10 10 -4 6 -1 17 5 25 7 8 9 24 5 36 -7 21 -5 21 41 16 27 -3 41
-3 32 -1 -41 12 -13 24 57 24 66 0 75 2 73 17 -4 25 29 28 37 3 3 -11 11 -18
16 -15 14 9 11 65 -3 66 -101 5 -274 2 -285 -6z"/>
<path d="M9760 7641 l0 -161 38 1 c20 0 55 3 76 7 l40 7 0 123 c1 115 0 122
-19 123 -19 0 -18 1 3 11 45 22 26 32 -75 43 l-63 7 0 -161z"/>
<path d="M3645 7453 c-6 -24 -1 -291 6 -297 7 -7 144 16 154 26 6 6 5 12 -4
17 -10 6 -10 13 -3 28 8 14 8 23 0 31 -8 8 -7 18 5 35 24 37 9 40 -33 7 -21
-17 -41 -30 -46 -30 -4 0 -22 -12 -38 -27 l-31 -28 26 30 c55 64 121 157 115
162 -3 3 -1 12 6 20 17 20 4 27 -77 39 -72 10 -74 10 -80 -13z"/>
<path d="M9767 7143 c-4 -3 -7 -70 -7 -148 0 -162 4 -170 67 -161 21 3 45 5
53 6 8 0 21 4 29 9 13 8 13 12 0 27 -8 10 -10 19 -4 21 6 2 9 48 9 115 l-2
113 -33 6 c-83 16 -106 19 -112 12z"/>
<path d="M5208 7039 c-6 -4 -7 -33 -3 -76 7 -70 7 -70 39 -71 95 -5 183 -4
196 2 11 5 19 -1 26 -21 l11 -28 16 38 c23 54 34 157 16 158 -64 4 -293 3
-301 -2z"/>
<path d="M5863 7042 c-9 -6 -10 -24 -3 -69 10 -74 16 -86 41 -80 10 3 21 2 23
-2 3 -4 37 -7 76 -6 61 1 74 -2 87 -19 8 -12 13 -14 10 -6 -2 8 0 24 6 35 9
18 9 19 -7 6 -9 -8 -16 -10 -15 -5 3 20 -1 35 -10 30 -5 -4 -8 5 -6 19 2 22 0
23 -14 13 -9 -7 -13 -8 -8 -3 4 4 -1 18 -10 29 -18 21 -18 21 2 4 11 -9 22
-16 25 -15 7 2 34 -20 62 -50 12 -13 25 -23 28 -23 4 0 10 30 14 67 5 49 4 68
-6 74 -7 5 -47 6 -88 3 -88 -6 -136 -6 -170 1 -14 3 -30 1 -37 -3z"/>
<path d="M6511 7042 c-14 -5 -2 -145 13 -154 6 -4 12 -3 14 2 2 6 11 6 20 2 9
-5 48 -8 85 -7 59 1 70 -2 80 -20 10 -19 11 -19 17 5 5 20 12 24 32 22 30 -3
34 5 44 87 l7 61 -44 1 c-170 3 -260 4 -268 1z"/>
<path d="M7267 7042 l-118 -3 5 -27 c2 -15 8 -49 11 -77 8 -56 23 -84 36 -64
5 8 34 13 76 14 37 1 78 5 90 9 15 5 27 1 42 -15 l21 -22 15 36 c8 19 18 61
21 91 l7 56 -31 0 c-17 0 -36 1 -44 3 -7 1 -66 1 -131 -1z"/>
<path d="M7803 7037 c-3 -4 -2 -35 2 -68 5 -41 13 -63 26 -72 24 -17 162 -15
184 3 12 10 21 10 46 0 25 -11 32 -11 39 0 11 17 24 129 16 137 -9 9 -307 9
-313 0z"/>
<path d="M8560 7040 l-105 -5 1 -35 c2 -69 15 -131 26 -124 6 4 54 9 107 11
53 2 105 4 116 6 11 1 20 -4 21 -10 3 -27 5 -27 19 -2 16 29 30 159 18 159
-67 4 -115 4 -203 0z"/>
<path d="M4816 7009 c-51 -40 -74 -139 -41 -173 12 -12 22 -13 45 -4 38 13 38
12 45 89 3 35 6 73 8 84 3 28 -24 30 -57 4z"/>
<path d="M3647 6814 c-7 -12 -7 -274 0 -297 4 -17 12 -18 76 -12 74 7 103 19
74 31 -24 9 -21 21 6 28 14 4 18 9 11 13 -13 9 -24 203 -11 203 12 0 8 18 -6
23 -28 10 -145 19 -150 11z"/>
<path d="M9760 6340 l0 -162 48 3 c65 3 99 22 107 59 4 18 11 28 18 24 7 -3 4
1 -7 10 -16 13 -17 23 -11 85 6 60 5 72 -9 77 -20 8 -21 21 -1 26 35 7 -6 26
-72 32 l-73 7 0 -161z"/>
<path d="M3647 6148 c-8 -28 -9 -261 -2 -281 6 -13 53 -14 130 -2 l30 5 -3
117 c-2 65 -8 123 -13 129 -6 8 -4 14 7 18 30 12 2 24 -72 31 -69 7 -71 6 -77
-17z"/>
<path d="M4866 5855 c-11 -8 -28 -15 -37 -15 -24 0 -57 -44 -65 -86 -13 -71
19 -141 74 -158 17 -6 22 -3 23 11 1 10 4 68 8 128 l6 110 163 3 c97 1 162 6
162 12 0 6 -62 10 -157 10 -123 -1 -162 -4 -177 -15z"/>
<path d="M5209 5843 c-2 -17 3 -128 5 -131 2 -1 15 2 30 8 15 5 33 7 39 3 18
-12 160 -11 175 1 10 7 16 6 23 -5 8 -12 10 -12 19 1 10 16 11 19 14 88 l2 42
-153 0 c-84 0 -153 -3 -154 -7z"/>
<path d="M5881 5842 c-23 -4 -23 -6 -19 -67 7 -77 14 -92 36 -72 12 10 41 13
102 12 47 -1 90 2 97 7 7 5 21 7 32 3 25 -8 27 -2 36 68 l7 58 -133 -2 c-74
-2 -145 -5 -158 -7z"/>
<path d="M6523 5843 c-9 -3 -13 -26 -13 -66 0 -39 4 -57 9 -48 7 11 9 11 13 0
3 -10 31 -14 106 -15 56 0 102 3 102 8 0 15 29 8 39 -9 5 -10 12 -15 15 -12
10 10 26 108 20 123 -3 8 -25 17 -48 20 -47 7 -223 6 -243 -1z"/>
<path d="M7202 5841 c-9 -5 -2 -15 25 -33 21 -15 53 -40 72 -58 21 -20 41 -30
52 -27 11 3 23 -2 28 -11 7 -12 15 -14 42 -6 31 9 34 14 41 59 12 81 6 85
-130 85 -64 0 -123 -4 -130 -9z"/>
<path d="M7812 5783 l3 -67 121 -2 c67 -1 126 -4 132 -8 19 -11 39 22 46 75 5
38 4 54 -6 60 -7 5 -77 9 -156 9 l-143 0 3 -67z"/>
<path d="M8467 5843 c-11 -3 -16 -12 -13 -26 3 -12 8 -44 11 -71 4 -27 10 -45
13 -40 4 6 55 10 120 9 62 -1 115 1 117 6 3 4 14 5 26 2 19 -5 20 -2 17 58
l-3 64 -135 2 c-74 1 -143 -1 -153 -4z"/>
<path d="M9766 5842 c-3 -3 -6 -75 -6 -160 l0 -154 73 7 c39 4 75 9 80 12 12
7 8 33 -5 33 -9 0 -10 3 -2 8 7 4 10 49 10 119 l-1 113 -30 9 c-40 12 -112 20
-119 13z"/>
<path d="M3646 5504 c-9 -24 -7 -277 3 -292 6 -10 25 -12 80 -6 72 7 97 19 65
31 -14 5 -14 8 7 24 l24 19 -22 0 c-13 0 -23 5 -23 10 0 6 5 10 10 10 6 0 10
7 10 15 0 8 -5 15 -11 15 -8 0 -8 5 1 15 14 17 7 98 -9 103 -5 2 -7 10 -4 19
4 10 2 14 -4 10 -6 -4 -10 1 -9 10 2 30 -107 46 -118 17z"/>
<path d="M9760 5040 l0 -163 60 6 c68 7 103 22 97 40 -2 7 0 22 4 34 5 14 4
25 -2 29 -7 4 -10 41 -7 99 1 51 1 96 -2 98 -3 3 -38 9 -78 12 l-72 7 0 -162z"/>
<path d="M3647 4864 c-9 -10 -9 -286 1 -301 8 -13 61 -10 130 8 33 9 40 15 32
25 -7 8 -10 58 -8 133 2 101 1 122 -12 125 -35 10 -136 17 -143 10z"/>
<path d="M4893 4693 c-14 -5 -18 -88 -7 -117 8 -22 47 -20 68 3 21 23 106 44
142 35 39 -10 72 4 89 36 9 17 13 35 10 40 -6 10 -279 13 -302 3z"/>
<path d="M5539 4693 c-13 -3 -14 -12 -4 -65 l11 -61 138 1 c76 0 142 4 146 9
4 4 10 31 14 59 6 51 6 51 -25 58 -34 7 -254 6 -280 -1z"/>
<path d="M6196 4693 c-16 -4 -18 -12 -13 -56 4 -28 11 -55 16 -60 13 -13 269
-13 280 -1 5 5 11 32 14 60 5 47 4 52 -16 58 -26 7 -253 6 -281 -1z"/>
<path d="M6848 4693 c-21 -5 -23 -38 -7 -92 l11 -36 136 3 c75 2 138 5 140 7
2 2 6 23 8 46 3 24 8 47 10 51 11 18 -53 28 -164 27 -64 -1 -125 -3 -134 -6z"/>
<path d="M7492 4692 c-9 -6 -10 -23 -5 -63 l8 -54 125 -5 c162 -7 166 -5 173
62 2 29 3 55 0 58 -8 9 -288 11 -301 2z"/>
<path d="M8143 4693 c-15 -5 -17 -59 -3 -68 5 -3 18 3 30 15 31 31 92 27 125
-7 14 -15 25 -36 25 -45 0 -18 19 -25 77 -26 39 -1 43 4 48 68 3 55 1 58 -27
34 -14 -14 -20 -14 -33 -4 -8 7 -13 16 -10 20 3 4 -3 11 -12 14 -18 7 -200 6
-220 -1z"/>
<path d="M8784 4686 c-3 -7 -4 -35 -2 -62 l3 -49 50 -7 c28 -3 71 -4 98 -1 40
5 47 9 47 27 -1 30 -39 72 -82 90 -47 20 -107 21 -114 2z"/>
<path d="M9767 4544 c-4 -4 -7 -77 -7 -162 l0 -155 71 7 c80 7 99 14 75 28
-14 8 -14 11 -2 23 8 8 12 29 11 47 -2 18 -3 70 -4 114 l-1 82 -47 7 c-27 3
-57 9 -68 11 -11 3 -24 2 -28 -2z"/>
<path d="M3646 4205 c-9 -25 -5 -294 5 -300 4 -3 39 -2 78 1 66 6 83 17 56 36
-5 4 -3 9 6 13 12 5 14 25 11 128 -2 67 -5 123 -6 124 -1 1 -34 5 -73 9 -62 6
-71 4 -77 -11z"/>
<path d="M9753 3753 c2 -83 7 -155 10 -160 4 -6 28 -6 59 -2 29 4 61 8 71 8
24 1 21 17 -5 25 l-23 7 23 9 c24 10 29 29 10 48 -7 7 -8 12 -2 12 6 0 11 37
13 89 2 102 6 97 -95 107 l-66 7 5 -150z"/>
<path d="M9656 3558 c-9 -12 -16 -26 -16 -30 0 -4 -14 -28 -31 -53 l-31 -47
38 -40 c22 -22 49 -44 62 -49 27 -11 29 -39 2 -39 -13 0 -20 7 -20 18 0 32
-99 116 -100 85 0 -9 -36 -55 -87 -113 -18 -20 -30 -39 -28 -42 3 -3 26 -1 51
3 25 5 81 10 125 11 68 3 79 5 79 21 0 10 7 20 16 24 11 4 14 14 10 34 -3 16
-1 31 4 34 6 3 10 49 10 101 0 86 -2 94 -19 94 -11 0 -26 3 -34 6 -9 3 -22 -4
-31 -18z"/>
<path d="M3644 3555 c-12 -29 4 -277 18 -291 10 -10 26 -10 68 -2 65 13 78 22
60 43 -7 8 -8 15 -3 15 13 0 17 226 5 234 -5 3 -39 8 -75 12 -58 6 -67 4 -73
-11z"/>
<path d="M9374 3195 c-41 -37 -151 -109 -213 -141 -60 -32 -66 -40 -57 -88 l7
-34 90 2 c62 2 94 7 99 16 7 11 11 11 25 0 15 -12 19 -12 31 4 11 15 16 17 28
7 8 -7 16 -8 19 -4 10 16 19 263 9 263 -5 0 -22 -11 -38 -25z"/>
<path d="M5532 2856 c7 -73 14 -89 27 -67 5 8 11 9 15 3 5 -8 53 -9 219 -3 30
1 40 17 51 88 l6 42 -163 3 -163 3 8 -69z"/>
<path d="M7633 2923 l-153 -4 0 -38 c0 -65 11 -103 25 -91 7 6 16 7 18 3 3 -5
47 -8 99 -8 53 0 96 -4 101 -10 4 -6 10 -1 13 13 4 12 10 22 14 22 4 0 11 -10
14 -22 5 -19 8 -20 15 -8 12 21 25 151 14 148 -4 -1 -77 -4 -160 -5z"/>
<path d="M8281 2922 l-153 -3 6 -57 c10 -77 15 -94 29 -85 6 4 52 8 102 10 49
2 107 6 127 9 35 6 37 8 46 62 6 32 7 59 4 62 -4 3 -76 4 -161 2z"/>
<path d="M4892 2878 c3 -38 6 -43 33 -50 17 -3 50 -12 74 -18 25 -6 78 -13
118 -15 l73 -5 0 28 c0 15 3 44 6 65 l7 37 -157 0 -157 0 3 -42z"/>
<path d="M6185 2862 c7 -61 23 -92 36 -71 5 9 15 7 39 -5 37 -18 60 -21 60 -7
0 18 34 21 58 5 24 -16 26 -16 39 2 14 18 15 18 27 2 7 -10 19 -18 27 -18 10
0 11 3 3 8 -7 4 -14 18 -16 32 -2 14 -8 24 -14 23 -6 -1 -17 14 -26 33 -10 22
-11 31 -4 24 7 -5 17 -6 21 -2 5 4 5 2 2 -4 -4 -7 0 -17 8 -24 8 -7 15 -9 15
-4 0 5 6 0 12 -11 11 -19 11 -19 19 0 4 11 8 32 8 46 l1 27 -161 1 -161 1 7
-58z"/>
<path d="M6830 2903 c0 -59 14 -95 39 -105 33 -14 192 -18 208 -6 7 6 19 5 32
-1 18 -10 20 -7 26 36 3 27 8 58 11 71 l4 22 -160 0 c-146 0 -160 -2 -160 -17z"/>
<path d="M8785 2863 c8 -66 18 -82 39 -64 12 10 20 9 41 -5 22 -14 30 -15 49
-4 27 14 58 4 35 -11 -10 -6 -11 -11 -3 -19 7 -7 17 3 34 36 22 41 25 44 37
28 11 -15 15 -15 29 -3 20 16 24 16 35 -3 5 -8 9 9 9 45 l0 57 -156 0 -155 0
6 -57z"/>
<path d="M8870 2752 c0 -5 -20 -35 -45 -68 -24 -32 -45 -64 -45 -71 0 -11 27
-11 198 -4 27 1 29 27 2 41 -11 6 -20 16 -20 21 0 18 -61 89 -76 89 -8 0 -14
-4 -14 -8z"/>
<path d="M8671 2508 c-52 -49 -107 -96 -123 -104 -15 -8 -28 -19 -28 -24 0 -6
-6 -10 -12 -10 -7 0 -24 -9 -37 -19 -19 -15 -22 -24 -17 -46 l7 -28 127 7 c70
5 135 8 144 8 24 -1 28 18 34 147 2 64 7 123 10 133 11 38 -16 21 -105 -64z"/>
<path d="M8330 2266 c-60 -18 -172 -59 -188 -70 -10 -6 -12 -27 -7 -90 3 -44
9 -84 13 -88 6 -6 119 14 162 30 8 3 25 4 38 3 12 -1 22 2 22 8 0 6 9 11 21
11 28 0 46 49 51 135 l3 70 -35 2 c-19 1 -55 -4 -80 -11z"/>
<path d="M4235 2128 c4 -29 9 -56 11 -59 2 -3 18 -5 36 -4 18 2 38 -1 43 -5 6
-4 24 -11 40 -15 17 -5 37 -10 45 -12 8 -3 27 -5 42 -6 15 -1 36 -10 47 -19
19 -16 20 -16 30 15 5 18 12 53 16 80 l6 47 -49 0 c-27 0 -93 7 -148 15 -136
21 -126 24 -119 -37z"/>
<path d="M4926 2153 l-49 -4 7 -71 c7 -77 23 -111 38 -83 5 9 14 12 21 8 7 -4
64 -8 128 -8 l117 -1 6 74 c4 41 5 76 3 78 -6 6 -220 12 -271 7z"/>
<path d="M5569 2153 l-45 -4 8 -72 c10 -78 14 -89 29 -67 8 13 10 13 19 0 13
-20 116 -24 124 -4 3 8 11 14 18 14 9 0 8 -3 -2 -10 -9 -6 -10 -10 -3 -10 6 0
29 17 50 37 21 20 42 37 46 37 13 1 27 29 27 54 0 12 -1 22 -2 22 -29 4 -235
6 -269 3z"/>
<path d="M6220 2153 c-19 -2 -37 -9 -41 -14 -7 -11 12 -118 24 -137 7 -10 12
-10 22 -2 7 6 16 7 18 2 3 -4 38 -8 77 -7 39 1 74 -3 77 -7 2 -5 11 -4 18 2 8
7 27 9 43 5 l30 -6 7 76 c4 42 5 78 3 81 -7 6 -239 13 -278 7z"/>
<path d="M6858 2153 c-26 -4 -28 -8 -27 -46 2 -64 13 -102 29 -103 8 -1 18 -3
23 -4 4 -1 37 -3 75 -4 37 -1 73 -5 80 -10 9 -5 18 -2 27 10 11 16 15 16 29 5
26 -22 38 -1 44 77 l4 69 -77 6 c-81 7 -160 7 -207 0z"/>
<path d="M7501 2153 c-23 -5 -24 -7 -18 -75 3 -39 8 -73 11 -76 9 -9 180 -9
198 0 10 5 19 4 23 -2 10 -17 23 -11 28 13 3 20 5 18 17 -12 17 -45 26 -27 35
70 l7 76 -83 6 c-90 7 -179 7 -218 0z"/>
</g>
</svg>
