<?xml version="1.0" standalone="no"?>
<!DOCTYPE svg PUBLIC "-//W3C//DTD SVG 20010904//EN"
 "http://www.w3.org/TR/2001/REC-SVG-20010904/DTD/svg10.dtd">
<svg version="1.0" xmlns="http://www.w3.org/2000/svg"
 width="840.000000pt" height="1029.000000pt" viewBox="0 0 840.000000 1029.000000"
 preserveAspectRatio="xMidYMid meet">
<metadata>
Created by potrace 1.16, written by Peter Selinger 2001-2019
</metadata>
<g transform="translate(0.000000,1029.000000) scale(0.100000,-0.100000)"
fill="#000000" stroke="none">
<path d="M2539 9876 c-106 -29 -210 -121 -250 -224 -20 -51 -23 -79 -27 -264
l-4 -207 -722 -3 c-783 -4 -749 -2 -895 -61 -168 -68 -316 -220 -388 -397 -56
-140 -53 114 -53 -3893 0 -3342 2 -3705 16 -3775 60 -291 275 -506 566 -566
70 -14 403 -16 3418 -16 3016 0 3348 2 3418 16 291 60 508 278 567 570 14 72
15 427 13 3804 l-3 3725 -23 70 c-70 207 -203 362 -387 450 -145 70 -121 68
-922 72 l-721 4 -4 207 c-4 186 -6 213 -27 264 -31 81 -106 159 -189 200 l-67
33 -1635 2 c-1274 1 -1645 -1 -1681 -11z m3011 -991 l0 -425 -1350 0 -1350 0
0 425 0 425 1350 0 1350 0 0 -425z m-3288 -502 c4 -186 7 -214 27 -265 31 -80
106 -159 189 -200 l67 -33 1655 0 1655 0 67 33 c83 41 158 120 189 200 20 51
23 79 27 265 l4 207 687 0 c662 0 687 -1 718 -20 18 -10 40 -31 50 -47 17 -26
18 -177 18 -3698 0 -3639 0 -3670 -20 -3703 -11 -18 -38 -41 -61 -52 -40 -20
-68 -20 -3347 -18 l-3306 3 -27 21 c-15 11 -37 33 -48 48 l-21 27 0 3673 c0
3522 1 3673 18 3699 10 16 32 37 50 47 31 19 56 20 718 20 l687 0 4 -207z"/>
<path d="M3775 6937 c-22 -8 -56 -22 -75 -31 -19 -10 -290 -273 -603 -584
l-567 -567 -238 237 c-154 153 -253 244 -282 259 -62 31 -179 38 -249 14 -96
-32 -183 -121 -212 -217 -18 -58 -13 -158 11 -223 21 -57 44 -82 399 -437 431
-432 431 -432 576 -433 149 0 108 -35 902 759 798 797 758 749 757 906 0 67
-5 95 -23 131 -56 116 -163 189 -288 195 -40 2 -85 -2 -108 -9z"/>
<path d="M5087 6265 c-89 -33 -179 -127 -207 -219 -20 -61 -8 -181 22 -241 35
-67 91 -122 158 -154 l55 -26 755 0 755 0 50 25 c118 58 188 173 188 307 0 61
-5 82 -32 137 -38 78 -102 137 -177 166 -53 19 -74 20 -792 19 -602 0 -744 -3
-775 -14z"/>
<path d="M3809 4280 c-100 -17 -119 -34 -704 -619 -308 -309 -564 -561 -570
-561 -6 0 -107 97 -225 216 -118 118 -233 228 -256 244 -195 137 -476 17 -513
-219 -11 -67 4 -154 35 -212 17 -30 157 -177 402 -421 354 -353 381 -377 437
-398 78 -28 185 -24 260 10 73 33 1460 1420 1496 1495 35 75 34 199 -2 275
-67 140 -211 216 -360 190z"/>
<path d="M5110 3607 c-183 -50 -287 -260 -220 -441 28 -73 99 -147 175 -183
l60 -28 740 0 740 0 60 28 c263 123 266 482 5 606 l-55 26 -730 2 c-555 1
-741 -1 -775 -10z"/>
</g>
</svg>
