<?xml version="1.0" standalone="no"?>
<!DOCTYPE svg PUBLIC "-//W3C//DTD SVG 20010904//EN"
 "http://www.w3.org/TR/2001/REC-SVG-20010904/DTD/svg10.dtd">
<svg version="1.0" xmlns="http://www.w3.org/2000/svg"
 width="540.000000pt" height="588.000000pt" viewBox="0 0 540.000000 588.000000"
 preserveAspectRatio="xMidYMid meet">
<metadata>
Created by potrace 1.16, written by Peter Selinger 2001-2019
</metadata>
<g transform="translate(0.000000,588.000000) scale(0.100000,-0.100000)"
fill="#000000" stroke="none">
<path d="M1297 5860 c-114 -36 -205 -116 -261 -227 -35 -69 -46 -134 -46 -274
l0 -119 -158 0 c-125 0 -175 -4 -235 -20 -204 -52 -362 -183 -453 -373 -68
-143 -64 -3 -64 -2225 0 -2215 -4 -2077 60 -2218 37 -83 69 -128 142 -201 74
-76 165 -132 273 -170 l80 -28 2065 0 2065 0 80 28 c215 75 375 238 447 452
l23 70 3 2037 c3 2247 6 2106 -61 2250 -89 191 -252 327 -455 379 -56 14 -109
19 -208 19 l-132 0 -4 148 c-5 166 -19 217 -86 313 -154 220 -476 238 -657 37
-88 -98 -107 -154 -114 -343 l-6 -150 -217 -3 -218 -2 0 29 c0 220 -18 318
-74 406 -172 267 -536 272 -717 9 -56 -81 -71 -143 -77 -301 l-5 -143 -218 0
-219 0 0 128 c0 189 -28 276 -123 380 -105 113 -282 160 -430 112z m227 -258
c22 -15 49 -45 60 -67 20 -38 21 -56 24 -475 2 -296 0 -447 -8 -473 -13 -43
-61 -102 -101 -123 -36 -18 -122 -18 -157 0 -31 16 -73 60 -93 96 -11 20 -15
116 -17 469 l-3 444 26 53 c54 111 173 144 269 76z m1248 28 c48 -14 94 -53
118 -101 19 -36 20 -61 20 -484 0 -472 -1 -487 -48 -538 -58 -65 -178 -75
-247 -23 -21 16 -46 48 -56 72 -19 41 -19 69 -17 503 l3 459 31 39 c32 40 104
83 139 83 11 0 37 -5 57 -10z m1358 -25 c20 -14 47 -44 61 -68 l24 -42 3 -425
c3 -455 0 -489 -45 -548 -38 -51 -80 -72 -141 -72 -81 0 -143 43 -176 122 -24
55 -24 872 -1 940 39 114 177 161 275 93z m790 -3164 c0 -2013 7 -1848 -77
-1941 -23 -26 -64 -58 -90 -71 l-48 -24 -2005 0 -2005 0 -46 23 c-59 29 -116
85 -143 142 l-21 45 -3 1808 -2 1807 2220 0 2220 0 0 -1789z"/>
<path d="M847 3513 c-2 -5 -4 -152 -3 -328 l1 -320 370 0 370 0 0 325 0 325
-367 3 c-202 1 -369 -1 -371 -5z"/>
<path d="M1835 3508 c-3 -7 -4 -155 -3 -328 l3 -315 373 -3 372 -2 -2 327 -3
328 -368 3 c-290 2 -369 0 -372 -10z"/>
<path d="M2822 3193 l3 -328 370 0 370 0 0 325 0 325 -373 3 -372 2 2 -327z"/>
<path d="M3810 3190 l0 -330 375 0 374 0 0 330 0 330 -374 0 -375 0 0 -330z"/>
<path d="M843 2310 l0 -330 373 0 374 0 0 330 0 330 -373 0 -373 0 -1 -330z"/>
<path d="M1835 2627 c-3 -7 -4 -154 -3 -327 l3 -315 373 -3 372 -2 0 330 0
330 -370 0 c-289 0 -372 -3 -375 -13z"/>
<path d="M2820 2310 l0 -330 373 2 372 3 2 328 2 327 -374 0 -375 0 0 -330z"/>
<path d="M3810 2310 l0 -330 375 0 375 0 0 330 0 330 -375 0 -375 0 0 -330z"/>
<path d="M846 1718 c-3 -24 -4 -171 -3 -328 l2 -285 373 -3 372 -2 -2 327 -3
328 -367 3 -367 2 -5 -42z"/>
<path d="M1835 1748 c-3 -7 -4 -155 -3 -328 l3 -315 370 0 370 0 0 325 0 325
-368 3 c-290 2 -369 0 -372 -10z"/>
<path d="M2820 1430 l0 -330 373 2 372 3 0 325 0 325 -372 3 -373 2 0 -330z"/>
<path d="M3810 1430 l0 -330 373 2 372 3 2 328 2 327 -374 0 -375 0 0 -330z"/>
</g>
</svg>
